<?xml version="1.0" standalone="no"?>
<!DOCTYPE svg PUBLIC "-//W3C//DTD SVG 20010904//EN"
 "http://www.w3.org/TR/2001/REC-SVG-20010904/DTD/svg10.dtd">
<svg version="1.0" xmlns="http://www.w3.org/2000/svg"
 width="409.000000pt" height="409.000000pt" viewBox="0 0 409.000000 409.000000"
 preserveAspectRatio="xMidYMid meet">
<metadata>
Created by potrace 1.11, written by Peter Selinger 2001-2013
</metadata>
<g transform="translate(0.000000,409.000000) scale(0.100000,-0.100000)"
fill="#000000" stroke="none">
<path d="M1635 3335 c-5 -1 -36 -8 -68 -15 -32 -6 -57 -13 -55 -15 2 -3 44 4
93 14 50 11 79 19 65 19 -14 0 -29 -1 -35 -3z"/>
<path d="M1893 3333 c9 -2 25 -2 35 0 9 3 1 5 -18 5 -19 0 -27 -2 -17 -5z"/>
<path d="M1968 3323 c6 -2 18 -2 25 0 6 3 1 5 -13 5 -14 0 -19 -2 -12 -5z"/>
<path d="M2040 3315 c0 -3 9 -15 19 -26 21 -23 24 -33 51 -208 10 -69 29 -165
41 -215 11 -50 27 -117 35 -149 8 -32 14 -70 14 -83 0 -13 5 -23 12 -22 16 4
50 -89 46 -130 -3 -33 -3 -33 -23 -14 -18 17 -21 17 -33 3 -11 -14 -12 -14
-11 4 1 11 0 29 -1 40 l-1 20 -9 -20 c-5 -11 -9 -15 -9 -9 -1 6 -7 11 -15 11
-8 0 -13 -8 -11 -18 3 -13 -2 -15 -18 -11 -12 3 -28 13 -34 21 -11 13 -12 11
-7 -15 6 -29 2 -34 -40 -64 -26 -17 -72 -43 -104 -57 -78 -36 -112 -61 -112
-84 0 -10 3 -19 8 -19 4 -1 26 -5 49 -9 35 -7 43 -5 46 8 4 12 5 11 6 -4 2
-18 3 -18 16 5 14 24 14 24 15 3 0 -13 -8 -24 -20 -28 -11 -3 -20 -12 -20 -18
0 -7 -4 -7 -9 2 -8 13 -16 12 -53 -3 -24 -10 -61 -25 -83 -32 -22 -8 -49 -19
-60 -23 -44 -20 -64 -24 -170 -36 -127 -14 -199 -11 -309 15 -98 24 -121 44
-129 112 -4 28 -14 70 -23 94 -16 41 -16 47 1 90 9 25 19 44 20 42 2 -2 6 -21
9 -43 2 -22 7 -47 11 -56 9 -23 50 -39 98 -38 l42 1 -40 11 c-64 19 -84 38
-94 93 -14 70 -99 403 -107 415 -3 6 -12 40 -20 77 -17 83 -8 117 47 167 23
20 39 38 37 40 -7 8 -87 -76 -94 -98 -4 -12 -12 -25 -18 -29 -7 -5 -7 -19 2
-50 7 -24 24 -88 38 -143 14 -55 36 -145 50 -200 l26 -100 -24 -70 c-15 -47
-36 -83 -61 -110 -20 -22 -53 -71 -72 -109 -58 -115 -44 -217 43 -310 23 -24
42 -51 42 -58 0 -10 2 -10 8 -1 9 15 82 -2 82 -18 0 -13 -41 -72 -52 -77 -4
-2 -8 -8 -8 -14 0 -18 29 12 52 53 21 38 57 56 44 23 -5 -14 -4 -15 9 -4 13
11 15 1 17 -81 l2 -94 5 88 c3 48 9 87 14 87 4 0 10 0 15 0 4 0 7 -67 7 -148
l0 -149 -88 -19 c-48 -10 -93 -25 -100 -33 -10 -12 -9 -13 8 -7 43 17 128 36
170 38 25 2 45 5 45 8 0 3 -7 23 -15 45 -14 41 -18 175 -6 230 5 25 11 29 31
27 14 -2 30 -10 36 -18 6 -8 16 -14 21 -14 6 0 13 -24 17 -52 3 -29 9 -65 12
-80 6 -25 3 -28 -19 -28 -20 0 -28 9 -44 48 -11 26 -23 60 -27 76 -4 15 -9 26
-12 23 -10 -10 49 -162 72 -188 13 -14 24 -30 24 -36 0 -6 3 -13 8 -15 4 -1
17 -16 30 -32 14 -19 22 -23 22 -13 0 9 -4 19 -10 22 -5 3 -10 11 -10 18 0 6
5 5 13 -4 6 -8 25 -25 41 -39 l30 -25 -25 35 c-38 55 -51 84 -40 88 5 2 8 9 5
15 -3 8 -21 12 -47 10 l-42 -2 35 11 c19 7 38 15 41 20 7 11 54 -53 51 -69 -2
-7 1 -13 6 -13 5 0 24 -13 43 -29 38 -33 40 -34 33 -4 -3 12 -17 24 -31 28
-15 3 -23 11 -20 19 3 7 -5 35 -18 62 -14 28 -25 68 -25 92 0 37 4 44 26 52
36 14 37 14 59 -31 l19 -42 11 27 11 26 39 -40 c21 -22 47 -42 57 -46 23 -7
23 -32 1 -64 l-17 -25 22 19 c12 11 22 25 22 33 0 7 7 13 15 13 23 0 18 -24
-12 -50 -40 -34 -74 -50 -113 -51 -34 -1 -34 -1 -8 -9 39 -12 95 8 131 47 17
18 38 33 47 33 10 0 4 10 -16 28 -30 26 -74 83 -74 96 0 19 30 0 68 -41 24
-27 41 -42 37 -35 -3 6 -2 12 4 12 5 0 16 3 25 6 11 4 19 -4 29 -28 l14 -33
-1 55 c-1 30 -4 57 -7 60 -13 10 -50 92 -45 98 4 3 19 -4 34 -15 20 -16 26
-28 24 -49 -3 -22 0 -26 8 -18 16 16 48 6 55 -16 20 -62 82 -78 130 -34 23 21
27 31 22 61 -4 20 -17 47 -29 61 l-23 25 29 -7 c55 -13 81 -38 77 -73 -3 -23
19 -14 31 13 9 20 9 30 0 45 -10 16 -9 19 3 19 22 0 19 7 -25 46 -22 20 -37
41 -34 46 4 5 23 -7 44 -27 28 -27 39 -33 43 -22 3 8 0 20 -6 26 -9 9 -8 14 3
21 17 11 38 -20 41 -60 2 -23 2 -23 6 -3 2 12 -5 40 -16 62 -24 45 -25 51 -12
51 5 0 19 -15 30 -32 21 -33 21 -33 15 -5 -5 23 -4 26 12 21 18 -6 18 -6 1 7
-22 17 -21 18 96 117 54 44 72 43 53 -3 -10 -22 -11 -37 -5 -41 6 -4 2 -15
-10 -28 -12 -13 -17 -26 -12 -32 13 -14 24 -54 14 -54 -4 0 -16 20 -26 45 -11
25 -23 45 -28 45 -4 0 1 -15 12 -34 30 -52 20 -112 -28 -153 -20 -18 -41 -33
-48 -33 -6 0 -20 -30 -30 -67 -24 -85 -77 -166 -146 -224 -101 -86 -153 -103
-280 -89 -107 11 -138 19 -196 49 -23 11 -47 21 -53 21 -18 0 -11 -17 13 -27
22 -11 21 -11 -8 -18 -16 -4 -37 -13 -45 -19 -13 -10 -13 -9 -1 7 7 9 12 17
10 18 -25 5 -49 4 -49 -3 0 -5 -10 -4 -22 2 -16 8 -12 2 10 -17 18 -15 32 -32
32 -38 1 -5 7 -18 14 -28 14 -18 16 -18 54 2 36 18 40 19 55 3 15 -15 17 -15
17 0 0 25 46 51 70 38 26 -14 26 -34 1 -27 -12 3 -22 -1 -25 -9 -5 -13 6 -18
27 -15 4 0 7 -6 7 -15 0 -8 5 -12 10 -9 6 3 10 1 10 -4 0 -6 8 -11 19 -11 10
0 29 -8 42 -19 13 -10 29 -16 35 -14 6 2 21 -20 35 -49 23 -52 107 -166 122
-167 4 -1 7 5 7 12 0 6 16 25 36 41 30 24 41 27 72 22 81 -15 134 -18 128 -7
-10 16 3 13 20 -4 20 -19 44 -19 44 0 0 8 -3 14 -7 13 -5 -1 -17 3 -28 9 -25
13 -85 27 -85 18 0 -3 10 -10 23 -16 17 -7 9 -8 -32 -5 -67 7 -80 18 -46 40
21 14 33 15 58 7 18 -5 68 -11 112 -13 l79 -3 7 33 c8 38 2 42 -11 7 -11 -30
-32 -32 -151 -10 -109 21 -122 34 -102 107 8 29 17 87 20 128 4 52 12 83 26
102 l21 28 18 -38 c11 -23 16 -28 12 -12 -15 61 -16 81 -4 95 7 8 17 12 22 9
6 -4 8 2 3 15 -3 12 -3 21 2 20 4 -2 27 6 51 15 41 18 46 26 43 72 -2 21 27
54 51 58 36 6 59 19 55 30 -3 7 8 35 23 62 16 27 41 72 56 99 33 63 31 60 49
45 19 -16 19 -25 1 -43 -8 -8 -31 -46 -52 -85 -21 -39 -45 -73 -53 -75 -11 -3
-10 -5 4 -6 15 0 33 22 73 95 28 52 52 102 52 111 0 8 16 47 35 85 20 38 32
74 29 80 -4 6 -3 8 4 4 6 -4 31 28 61 76 28 46 59 94 67 108 l16 25 -20 -25
c-11 -14 -28 -34 -37 -45 -16 -20 -16 -19 -10 5 4 14 -33 -40 -81 -120 -48
-80 -100 -161 -115 -180 -15 -19 -49 -75 -76 -124 -38 -69 -56 -92 -76 -97
-15 -4 -27 -3 -27 2 0 5 7 9 16 9 13 0 15 7 10 35 -5 24 -3 35 5 35 11 0 10
16 -6 68 -6 16 -3 22 8 22 11 0 16 10 16 33 0 90 14 127 79 193 6 7 12 15 12
18 0 3 12 31 26 62 15 33 24 69 23 89 -2 18 3 40 10 49 11 14 11 16 -2 16 -9
0 -26 19 -39 43 -19 35 -36 49 -107 84 -47 23 -96 43 -110 45 -20 2 -27 10
-29 29 -2 15 -12 35 -23 45 -22 20 -25 8 -6 -21 8 -11 14 -37 14 -58 1 -21 8
-48 17 -62 18 -27 35 -116 19 -100 -6 6 -21 40 -33 77 -13 37 -27 65 -32 62
-7 -5 -10 15 -12 89 -1 12 -6 27 -12 32 -7 6 -14 22 -18 36 -15 67 -55 300
-61 359 -7 66 -26 121 -53 153 -15 16 -32 23 -32 12z m328 -698 c112 -36 162
-97 162 -197 0 -38 -9 -64 -45 -126 -65 -116 -91 -141 -255 -243 -104 -66
-182 -93 -370 -131 -316 -63 -600 -81 -713 -45 -101 32 -156 72 -193 141 -31
58 -33 65 -24 117 12 75 53 159 96 196 19 17 38 31 43 31 12 0 41 -97 41 -138
0 -44 37 -79 112 -107 80 -30 372 -28 512 3 128 29 268 84 333 133 29 22 56
39 60 39 13 0 153 141 153 153 0 6 9 21 21 33 19 20 19 25 8 65 -7 24 -19 50
-26 57 -17 17 -17 42 0 42 6 0 45 -11 85 -23z m-145 -212 c-3 -9 -8 -14 -10
-11 -3 3 -2 9 2 15 9 16 15 13 8 -4z m-41 -24 c-4 -31 -32 -63 -57 -67 -8 -1
-15 2 -15 7 0 5 5 9 10 9 6 0 9 3 9 8 -4 21 2 43 10 38 4 -3 16 3 26 14 23 25
22 26 17 -9z m522 -75 c-9 -15 -19 -25 -21 -22 -3 2 3 16 13 30 9 15 19 25 21
22 3 -2 -3 -16 -13 -30z m-626 -12 c-16 -8 -28 -21 -28 -29 0 -8 -5 -15 -11
-15 -13 0 -1 42 15 52 6 4 20 8 31 7 17 0 16 -2 -7 -15z m-84 -61 c-35 -26
-54 -34 -54 -23 0 5 6 10 14 10 8 0 20 13 27 30 12 25 15 27 23 13 6 -12 3
-20 -10 -30z m601 -113 c-9 -16 -18 -30 -21 -30 -2 0 2 14 11 30 9 17 18 30
21 30 2 0 -2 -13 -11 -30z m-564 -200 c27 -15 24 -25 -11 -28 -24 -2 -30 2
-30 18 0 22 12 25 41 10z m-117 -16 c23 -9 19 -26 -14 -52 l-29 -22 -15 22
c-22 31 -20 46 7 51 12 2 25 5 29 6 3 0 13 -2 22 -5z m-414 -73 c0 -6 -4 -12
-8 -15 -13 -8 -52 5 -46 15 7 12 54 12 54 0z m466 -6 c9 -22 -4 -65 -22 -72
-32 -12 -39 40 -12 75 14 16 27 15 34 -3z m-203 -75 c18 -21 31 -28 44 -23 27
9 3 -11 -29 -25 -26 -11 -28 -9 -52 35 -14 25 -26 50 -26 55 0 14 36 -9 63
-42z m37 9 c0 -18 -2 -19 -15 -9 -8 7 -15 16 -15 21 0 5 7 9 15 9 9 0 15 -9
15 -21z m-431 -41 c6 -18 7 -28 2 -23 -10 12 -25 55 -18 55 3 0 10 -15 16 -32z
m48 20 c6 -7 13 -26 17 -43 4 -16 10 -39 13 -50 5 -18 4 -18 -11 -6 -18 15
-39 52 -50 89 -8 25 14 32 31 10z m903 3 c0 -14 -18 -23 -31 -15 -8 4 -7 9 2
15 18 11 29 11 29 0z m-936 -77 c3 -8 2 -12 -4 -9 -6 3 -10 10 -10 16 0 14 7
11 14 -7z m9 -78 c3 -8 3 -17 0 -20 -7 -7 -33 13 -33 25 0 15 27 10 33 -5z
m712 -105 c-17 -33 -29 -42 -18 -13 6 15 5 16 -13 2 -18 -14 -18 -14 -4 5 17
23 43 45 48 40 2 -2 -4 -17 -13 -34z m-470 -23 c14 -6 25 -14 25 -17 0 -6 -39
-43 -41 -38 0 1 -2 9 -4 17 -2 8 -6 23 -10 33 -8 20 -4 21 30 5z m478 -40 c-8
-43 -18 -54 -38 -38 -19 16 -19 30 0 30 8 0 20 9 27 20 17 27 19 25 11 -12z
m-83 -9 c0 -14 -5 -19 -17 -17 -23 4 -28 25 -6 31 10 3 19 5 21 6 1 0 2 -8 2
-20z m-248 -14 c6 -14 8 -28 5 -32 -9 -8 -47 27 -47 44 0 23 30 14 42 -12z
m172 1 c-6 -16 -24 -13 -24 5 0 6 5 7 10 4 6 -3 10 -1 10 6 0 7 2 10 5 7 3 -3
3 -13 -1 -22z m-20 -26 c32 -22 66 -40 75 -41 51 -2 70 -14 53 -31 -18 -18
-15 -25 10 -24 15 1 23 -7 29 -26 6 -24 2 -31 -49 -70 -32 -24 -60 -47 -64
-52 -7 -10 -71 85 -88 130 -13 34 -7 40 24 26 21 -9 24 -9 19 4 -4 11 3 14 38
12 23 -2 44 2 46 7 2 6 -27 9 -77 7 -68 -3 -80 -1 -80 12 0 9 -8 16 -18 16
-17 0 -42 36 -42 60 0 25 68 8 124 -30z m156 -20 c0 -4 -9 -6 -21 -3 -15 4
-17 8 -8 14 14 8 29 3 29 -11z"/>
<path d="M2501 2434 c0 -11 3 -14 6 -6 3 7 2 16 -1 19 -3 4 -6 -2 -5 -13z"/>
<path d="M2482 2376 c-7 -20 -19 -42 -25 -49 -7 -7 -23 -28 -36 -47 l-24 -35
25 23 c29 27 81 117 76 133 -2 6 -9 -6 -16 -25z"/>
<path d="M2244 2125 c-10 -8 -14 -15 -8 -15 6 0 17 7 24 15 16 19 9 19 -16 0z"/>
<path d="M2193 2099 c-5 -5 -37 -21 -69 -34 -32 -14 -51 -25 -42 -25 9 0 36 9
60 19 47 21 89 50 73 51 -6 0 -16 -5 -22 -11z"/>
<path d="M960 2033 c0 -11 59 -73 70 -73 5 0 -8 18 -27 40 -37 41 -43 45 -43
33z"/>
<path d="M2038 2033 c7 -3 16 -2 19 1 4 3 -2 6 -13 5 -11 0 -14 -3 -6 -6z"/>
<path d="M1888 1997 c-59 -17 -106 -32 -104 -35 8 -7 129 22 184 44 77 32 49
29 -80 -9z"/>
<path d="M1715 1950 l-20 -9 20 0 c11 0 29 4 40 9 l20 9 -20 0 c-11 0 -29 -4
-40 -9z"/>
<path d="M1538 1928 c-13 -3 8 -6 47 -6 39 0 79 3 90 8 24 10 -99 9 -137 -2z"/>
<path d="M1185 1920 c19 -8 103 -14 94 -6 -2 2 -29 6 -59 9 -34 3 -47 2 -35
-3z"/>
<path d="M1333 1913 c15 -2 37 -2 50 0 12 2 0 4 -28 4 -27 0 -38 -2 -22 -4z"/>
<path d="M2003 1260 c-13 -5 -23 -12 -23 -15 0 -10 27 -5 46 10 21 16 11 18
-23 5z"/>
<path d="M2070 1235 c-11 -13 -10 -14 4 -9 9 3 16 10 16 15 0 13 -6 11 -20 -6z"/>
<path d="M1265 3244 c-56 -19 -114 -46 -130 -60 -27 -22 -27 -24 -5 -12 14 7
27 13 30 13 3 1 16 6 30 12 29 13 168 68 190 76 13 5 13 5 0 5 -8 0 -60 -15
-115 -34z"/>
<path d="M1530 3038 c-19 -6 -62 -16 -95 -23 -47 -11 -52 -13 -25 -13 19 -1
76 10 125 23 50 12 77 23 60 23 -16 0 -46 -4 -65 -10z"/>
<path d="M2425 2677 c17 -8 32 -13 34 -11 7 7 -3 12 -34 19 l-30 6 30 -14z"/>
<path d="M2165 2623 c-10 -15 -26 -33 -34 -40 -17 -13 -3 -18 14 -5 15 10 47
63 42 68 -2 3 -12 -8 -22 -23z"/>
<path d="M2598 2633 c7 -3 16 -2 19 1 4 3 -2 6 -13 5 -11 0 -14 -3 -6 -6z"/>
<path d="M2742 2595 c10 -10 178 -63 178 -56 0 4 -37 19 -82 34 -80 26 -107
33 -96 22z"/>
<path d="M2054 2535 c-11 -13 -49 -36 -85 -49 -35 -14 -59 -25 -52 -26 46 -1
180 77 161 95 -2 3 -13 -6 -24 -20z"/>
<path d="M2731 2513 c-81 -17 -87 -23 -22 -20 28 1 51 7 51 12 0 6 5 3 10 -5
9 -13 10 -13 10 0 0 12 2 12 9 1 6 -10 10 -10 16 -1 14 22 -10 27 -74 13z"/>
<path d="M2833 2518 c-13 -18 -34 -68 -28 -68 3 0 14 18 25 40 20 39 22 52 3
28z"/>
<path d="M2970 2526 c0 -2 7 -7 16 -10 8 -3 12 -2 9 4 -6 10 -25 14 -25 6z"/>
<path d="M3010 2510 c0 -5 5 -10 11 -10 5 0 7 5 4 10 -3 6 -8 10 -11 10 -2 0
-4 -4 -4 -10z"/>
<path d="M3066 2491 c5 -5 20 -12 34 -15 l25 -7 -25 15 c-28 17 -50 21 -34 7z"/>
<path d="M2776 2463 c-6 -14 -5 -15 5 -6 7 7 10 15 7 18 -3 3 -9 -2 -12 -12z"/>
<path d="M3171 2458 c25 -13 65 -31 90 -41 24 -10 69 -30 99 -45 81 -39 92
-43 85 -32 -8 13 -170 90 -189 90 -8 0 -17 4 -21 10 -3 5 -20 13 -38 19 -18 5
-41 12 -52 15 -11 4 1 -4 26 -16z"/>
<path d="M1810 2440 c-124 -33 -185 -53 -173 -57 12 -4 161 35 228 60 53 20
26 19 -55 -3z"/>
<path d="M1368 2363 c-46 -2 -78 -8 -78 -14 0 -13 140 -2 155 12 5 5 7 8 5 7
-3 -1 -40 -4 -82 -5z"/>
<path d="M1145 2321 c-3 -16 -3 -45 0 -65 6 -29 13 -37 41 -46 75 -25 77 32 4
102 l-39 37 -6 -28z"/>
<path d="M3550 2272 c0 -5 15 -17 33 -25 18 -9 43 -27 56 -41 14 -14 29 -26
35 -26 12 0 -50 54 -96 83 -15 11 -28 15 -28 9z"/>
<path d="M3705 2146 c10 -14 19 -26 22 -26 7 0 -17 39 -28 46 -6 3 -3 -5 6
-20z"/>
<path d="M3492 2100 c-45 -4 -86 -11 -90 -15 -9 -9 161 4 197 15 l26 8 -25 0
c-14 -1 -62 -4 -108 -8z"/>
<path d="M3675 2100 c3 -5 8 -10 11 -10 2 0 4 5 4 10 0 6 -5 10 -11 10 -5 0
-7 -4 -4 -10z"/>
<path d="M3718 2093 c7 -3 16 -2 19 1 4 3 -2 6 -13 5 -11 0 -14 -3 -6 -6z"/>
<path d="M3245 2070 l-30 -8 33 -1 c17 0 32 4 32 9 0 6 -1 9 -2 9 -2 -1 -16
-5 -33 -9z"/>
<path d="M3318 2073 c12 -2 32 -2 45 0 12 2 2 4 -23 4 -25 0 -35 -2 -22 -4z"/>
<path d="M3173 2053 c9 -2 23 -2 30 0 6 3 -1 5 -18 5 -16 0 -22 -2 -12 -5z"/>
<path d="M3108 2043 c6 -2 18 -2 25 0 6 3 1 5 -13 5 -14 0 -19 -2 -12 -5z"/>
<path d="M3035 2033 c-57 -12 -145 -36 -142 -40 2 -2 48 8 103 21 81 20 111
35 39 19z"/>
<path d="M2266 1945 c-10 -20 -16 -43 -14 -53 2 -10 11 5 20 33 20 60 17 69
-6 20z"/>
<path d="M2770 1955 c-19 -7 -28 -14 -20 -14 8 0 29 6 45 14 39 17 21 18 -25
0z"/>
<path d="M2685 1930 c-13 -5 -14 -9 -5 -9 8 0 24 4 35 9 13 5 14 9 5 9 -8 0
-24 -4 -35 -9z"/>
<path d="M2638 1913 c7 -3 16 -2 19 1 4 3 -2 6 -13 5 -11 0 -14 -3 -6 -6z"/>
<path d="M2550 1880 c-9 -6 -10 -10 -3 -10 6 0 15 5 18 10 8 12 4 12 -15 0z"/>
<path d="M2190 1862 c6 -13 14 -21 18 -18 3 4 -2 14 -12 24 -18 16 -18 16 -6
-6z"/>
<path d="M2506 1858 c4 -7 14 -24 23 -37 8 -13 16 -31 16 -40 2 -44 19 -121
26 -121 27 0 -30 202 -59 208 -9 1 -11 -2 -6 -10z"/>
<path d="M2400 1687 c-56 -89 -56 -88 -33 -81 15 6 16 4 6 -7 -7 -7 -13 -18
-13 -23 1 -6 12 3 26 19 l25 30 -5 -50 c-4 -37 -3 -42 3 -20 5 17 9 45 10 63
1 19 6 32 14 32 7 0 21 17 30 38 12 25 13 31 3 19 -11 -14 -15 -15 -19 -5 -2
7 -2 3 0 -9 4 -26 -12 -31 -21 -7 -7 19 11 57 25 49 5 -4 9 -2 9 4 0 29 -20
12 -60 -52z"/>
<path d="M957 1693 c-33 -106 -66 -244 -57 -238 4 3 11 22 15 42 4 21 18 76
32 123 14 47 27 93 30 103 3 9 3 17 0 17 -3 0 -12 -21 -20 -47z"/>
<path d="M1192 1645 c0 -11 3 -29 8 -40 11 -25 11 1 0 35 -6 20 -8 21 -8 5z"/>
<path d="M1790 1626 c0 -8 7 -17 16 -20 23 -9 24 -4 2 17 -14 13 -18 14 -18 3z"/>
<path d="M2448 1570 c4 -41 7 -107 7 -147 0 -39 3 -69 8 -66 4 2 7 40 7 83 0
73 3 83 31 124 l32 45 34 -26 c18 -14 51 -48 73 -75 21 -27 42 -49 46 -48 13
1 16 -50 5 -81 -6 -17 -6 -31 -1 -34 5 -3 7 -12 3 -20 -3 -8 0 -15 6 -15 9 0
9 -6 0 -22 l-12 -23 -11 25 c-5 14 -11 26 -11 28 -4 6 -65 -30 -65 -39 0 -14
16 -11 30 6 10 13 15 13 24 2 6 -7 28 -26 49 -41 l38 -28 -7 26 c-4 16 -2 26
5 26 6 0 8 7 4 17 -5 12 -2 15 10 10 10 -4 16 -2 14 6 -1 7 5 12 13 12 11 0
16 -14 20 -50 4 -36 7 -45 13 -31 12 30 -11 92 -46 122 -50 42 -61 62 -46 81
12 13 10 18 -9 32 -13 9 -54 46 -92 84 -38 37 -77 67 -88 67 -18 0 -46 -31
-64 -70 -4 -10 -7 -5 -8 15 -1 17 -6 41 -11 55 -5 15 -5 -5 -1 -50z m282 -209
c0 -4 -7 -8 -15 -8 -8 0 -15 6 -15 13 0 8 6 11 15 8 8 -4 15 -9 15 -13z m29
-37 c-17 -21 -31 -17 -19 6 6 11 15 18 21 14 6 -4 6 -11 -2 -20z"/>
<path d="M2260 1615 c0 -2 18 -14 40 -25 36 -18 39 -23 34 -53 -3 -17 -12 -51
-21 -75 -8 -24 -13 -46 -10 -49 10 -9 49 134 45 164 -3 24 -7 28 -30 25 -14
-2 -29 2 -33 7 -6 11 -25 15 -25 6z"/>
<path d="M2212 1498 c-19 -22 -22 -32 -12 -43 9 -11 7 -20 -9 -44 -73 -108
-70 -100 -36 -93 19 3 25 0 26 -14 0 -13 2 -15 6 -5 3 8 -2 20 -11 27 -15 10
-16 16 -6 36 7 13 22 33 33 46 17 18 19 27 11 40 -9 13 -6 23 9 44 28 38 18
43 -11 6z"/>
<path d="M1270 1511 c0 -6 4 -13 10 -16 6 -3 7 1 4 9 -7 18 -14 21 -14 7z"/>
<path d="M1848 1499 c-10 -5 -18 -15 -18 -20 0 -6 8 -3 17 6 12 13 28 16 60
12 23 -2 40 -1 37 4 -7 12 -75 11 -96 -2z"/>
<path d="M990 1469 c0 -5 5 -7 10 -4 6 3 10 8 10 11 0 2 -4 4 -10 4 -5 0 -10
-5 -10 -11z"/>
<path d="M2653 1430 c0 -25 2 -35 4 -22 2 12 2 32 0 45 -2 12 -4 2 -4 -23z"/>
<path d="M2589 1335 c-16 -17 -159 -29 -159 -13 0 5 -5 6 -10 3 -45 -28 108
-35 165 -8 19 9 35 20 35 25 0 13 -14 9 -31 -7z"/>
<path d="M2420 1239 c0 -9 9 -24 20 -34 26 -23 26 -4 0 26 -15 18 -19 20 -20
8z"/>
<path d="M2465 1225 c7 -18 11 -38 14 -70 1 -5 6 -2 11 7 8 12 5 26 -11 50
-12 18 -18 24 -14 13z"/>
<path d="M2760 1210 c20 -13 33 -13 25 0 -3 6 -14 10 -23 10 -15 0 -15 -2 -2
-10z"/>
<path d="M2395 1189 c-4 -11 -4 -23 -1 -26 3 -4 6 2 6 13 0 14 2 16 9 5 5 -7
7 -23 4 -35 -4 -18 -3 -19 6 -4 8 11 8 25 1 42 -12 31 -17 32 -25 5z"/>
<path d="M2335 1190 c-3 -5 -1 -10 4 -10 6 0 11 5 11 10 0 6 -2 10 -4 10 -3 0
-8 -4 -11 -10z"/>
<path d="M2330 1150 c-11 -7 -4 -10 25 -10 29 0 36 3 25 10 -8 5 -19 10 -25
10 -5 0 -17 -5 -25 -10z"/>
</g>
</svg>
